<?xml version="1.0" standalone="no"?>
<!DOCTYPE svg PUBLIC "-//W3C//DTD SVG 20010904//EN"
 "http://www.w3.org/TR/2001/REC-SVG-20010904/DTD/svg10.dtd">
<svg version="1.0" xmlns="http://www.w3.org/2000/svg"
 width="512.000000pt" height="512.000000pt" viewBox="0 0 512.000000 512.000000"
 preserveAspectRatio="xMidYMid meet">

<g transform="translate(0.000000,512.000000) scale(0.100000,-0.100000)"
fill="#000000" stroke="none">
<path d="M0 2560 l0 -2560 2560 0 2560 0 0 2560 0 2560 -2560 0 -2560 0 0
-2560z m2371 1675 c242 -32 483 -115 654 -225 17 -11 37 -23 45 -27 47 -21
224 -170 314 -264 230 -240 369 -516 442 -876 2 -12 23 -32 48 -47 154 -90
181 -297 56 -426 -27 -27 -60 -54 -74 -60 -18 -7 -27 -19 -31 -47 -56 -324
-213 -634 -440 -871 -91 -95 -268 -244 -315 -265 -8 -4 -28 -16 -45 -27 -16
-11 -75 -42 -130 -69 -568 -280 -1257 -208 -1760 184 -103 81 -257 241 -332
347 -32 45 -62 90 -66 98 -4 8 -16 29 -27 45 -60 90 -139 282 -174 425 -42
167 -51 239 -51 425 0 317 63 556 222 850 41 76 164 236 252 327 186 194 375
319 626 413 247 92 530 125 786 90z m2057 -1417 c34 -5 62 -13 62 -17 0 -4 -6
-16 -14 -26 -12 -17 -18 -18 -66 -7 -28 7 -87 12 -130 12 -69 0 -82 -3 -107
-24 -23 -20 -28 -32 -28 -71 0 -33 5 -50 18 -60 9 -7 66 -22 125 -35 161 -33
217 -66 222 -131 8 -96 -27 -150 -111 -168 -71 -16 -167 -14 -257 5 -93 19
-95 20 -81 46 12 22 19 22 134 -2 81 -16 188 -10 213 13 40 37 36 139 -7 151
-9 3 -63 15 -121 26 -121 25 -184 49 -200 79 -20 37 -16 118 7 149 56 76 152
93 341 60z"/>
<path d="M2010 4204 c-437 -53 -801 -239 -1071 -547 -665 -759 -520 -1902 313
-2481 37 -25 71 -46 75 -46 5 0 24 -10 43 -23 43 -29 209 -100 308 -133 156
-51 282 -68 487 -68 251 0 384 25 614 116 297 117 595 360 756 617 6 9 17 27
26 41 92 139 192 398 222 575 l6 30 -56 -3 c-45 -3 -65 1 -119 28 -180 88
-220 304 -81 443 59 59 124 87 200 87 57 0 58 4 22 140 -41 152 -116 328 -185
435 -14 22 -31 52 -38 66 -23 44 -180 226 -252 290 -246 221 -512 354 -830
414 -82 16 -366 28 -440 19z m-446 -1639 c58 -146 106 -268 106 -271 0 -3 -18
-4 -41 -2 l-41 3 -32 80 -32 80 -111 3 -110 3 -33 -86 -33 -85 -38 0 c-22 0
-39 3 -39 8 0 4 43 115 96 247 53 132 100 250 105 263 7 18 16 22 53 22 l44 0
106 -265z m540 256 c4 -5 3 -16 0 -25 -5 -13 -23 -16 -100 -16 l-94 0 0 -245
0 -245 -40 0 -40 0 0 245 0 245 -95 0 c-94 0 -101 3 -89 34 5 14 35 16 229 16
124 0 226 -4 229 -9z m153 -86 c1 -49 2 -100 2 -112 1 -23 2 -23 146 -23 l145
0 0 115 0 115 40 0 40 0 0 -270 0 -270 -40 0 -40 0 0 130 0 130 -145 0 -145 0
0 -130 0 -130 -45 0 -45 0 0 263 c0 145 3 267 7 271 4 4 23 6 43 4 l35 -3 2
-90z m713 -132 c66 -154 97 -217 102 -205 50 123 174 410 181 420 5 6 31 12
58 12 l49 0 0 -270 0 -270 -35 0 -35 0 -2 208 -3 207 -89 -208 -89 -208 -44 3
-45 3 -86 205 -87 205 -3 -207 -2 -208 -40 0 -40 0 0 263 c0 145 3 267 7 271
4 4 30 6 58 4 l50 -3 95 -222z"/>
<path d="M1388 2673 c-14 -38 -35 -92 -47 -120 l-21 -53 91 0 c82 0 91 2 86
18 -3 9 -23 63 -45 120 l-39 102 -25 -67z"/>
<path d="M3635 2756 c-59 -27 -77 -46 -104 -106 -27 -60 -26 -123 3 -185 28
-60 46 -77 110 -106 184 -81 368 113 282 296 -27 59 -46 77 -106 104 -60 27
-123 26 -185 -3z"/>
</g>
</svg>
